<?xml version="1.0" encoding="UTF-8"?>
<svg version="1.1" xmlns="http://www.w3.org/2000/svg" width="512" height="512">
<path d="M0 0 C15.13507659 12.73305365 23.6108825 31.46262728 25.34765625 51.0078125 C27.5339076 91.24161638 12.17470794 128.48882825 -10.65234375 161.0078125 C-9.07857072 164.84906411 -6.49371419 167.44158717 -3.59042358 170.3102417 C-3.07010358 170.83227055 -2.54978359 171.3542994 -2.01369631 171.8921473 C-0.26954529 173.63959173 1.48165625 175.37979335 3.23291016 177.12011719 C4.48485033 178.37149321 5.73635026 179.62330981 6.98744202 180.87553406 C10.38564359 184.27431001 13.78998126 187.66687945 17.19543886 191.05838299 C20.75311468 194.60356575 24.30513659 198.15440398 27.85775757 201.70465088 C34.58626712 208.42694148 41.3198592 215.14411709 48.0552839 221.85947824 C55.72296866 229.50481694 63.38498273 237.15582788 71.04652143 244.80732489 C86.8072566 260.54714865 102.57511349 276.27982147 118.34765625 292.0078125 C119.4471541 291.07640152 120.54505318 290.14310309 121.64230347 289.20904541 C122.25387236 288.68952427 122.86544125 288.17000313 123.49554253 287.63473892 C126.4700911 285.02184771 129.21842842 282.20101875 131.98046875 279.3671875 C133.21065056 278.11950869 134.44112793 276.87212123 135.671875 275.625 C137.58194548 273.68387547 139.4895553 271.74050505 141.39208984 269.79199219 C143.24812836 267.89360878 145.11350274 266.00481685 146.98046875 264.1171875 C147.82751877 263.24220612 147.82751877 263.24220612 148.69168091 262.34954834 C152.70417651 258.31127138 155.758934 256.05665632 161.66015625 255.9453125 C170.14477066 258.39003191 176.69586168 267.20109511 182.78515625 273.3203125 C183.59919922 274.13048828 184.41324219 274.94066406 185.25195312 275.77539062 C186.02474609 276.54947266 186.79753906 277.32355469 187.59375 278.12109375 C188.29169678 278.82016846 188.98964355 279.51924316 189.70874023 280.23950195 C192.7096867 283.477377 192.80873696 286.29351686 192.75390625 290.5703125 C191.75249378 296.57878733 186.81126804 300.60342367 182.53515625 304.5703125 C179.95678445 307.08008017 179.33992039 308.03273917 178.22265625 311.6328125 C178.36312661 315.42551234 178.99445646 317.06631276 181.34765625 320.0078125 C184.88196281 322.36401687 186.18336912 322.49772863 190.34765625 322.0078125 C195.5933994 319.00617257 199.51012109 315.04769351 203.6875 310.72265625 C205.09412593 309.29074532 206.50103565 307.85911312 207.90820312 306.42773438 C210.10189002 304.18440877 212.29223895 301.93801367 214.47729492 299.6862793 C216.60097391 297.50199875 218.73708186 295.33048919 220.875 293.16015625 C221.52000961 292.48822739 222.16501923 291.81629852 222.82957458 291.12400818 C226.75151766 287.15937201 229.99918597 284.70325707 235.34765625 283.0078125 C245.02347564 284.06335643 252.19648661 293.69491019 258.72265625 300.2578125 C259.43292969 300.96421875 260.14320313 301.670625 260.875 302.3984375 C261.55433594 303.0790625 262.23367188 303.7596875 262.93359375 304.4609375 C263.54251465 305.07098633 264.15143555 305.68103516 264.77880859 306.30957031 C268.34804854 310.17319202 269.12844953 313.03270519 268.94017029 318.15396118 C268.21238205 321.65936239 266.9990868 323.02167358 264.54321289 325.60302734 C263.72321808 326.47151306 262.90322327 327.33999878 262.05838013 328.23480225 C261.16384125 329.14989563 260.26930237 330.06498901 259.34765625 331.0078125 C257.99001663 332.40051361 257.99001663 332.40051361 256.60494995 333.8213501 C253.60315169 336.87780229 250.56809172 339.90030946 247.53125 342.921875 C246.42288026 344.02837411 245.3147352 345.13509832 244.20680237 346.24203491 C241.32395054 349.12111231 238.4381063 351.99717113 235.55157471 354.87255859 C232.59307551 357.82073305 229.63749036 360.77182587 226.68164062 363.72265625 C220.90645416 369.48719519 215.12809524 375.2485406 209.34765625 381.0078125 C210.63581155 384.30411476 212.027638 387.28509914 213.84765625 390.3203125 C218.90599208 399.3775687 219.8822195 409.12677174 217.16015625 419.1953125 C214.22639152 427.91357562 208.85658439 435.77234854 201.03515625 440.6953125 C200.13152344 441.27667969 199.22789062 441.85804688 198.296875 442.45703125 C189.3990697 447.13574477 178.58605664 447.60120097 168.921875 445.1328125 C163.309007 442.96469068 158.76756134 440.23210699 154.45469129 436.03890127 C152.24483737 433.90869963 149.96999421 431.87171424 147.6741581 429.83461094 C142.71087043 425.37857583 137.95544195 420.75342565 133.24862671 416.02903748 C132.39070357 415.17196876 131.53278043 414.31490005 130.64885962 413.43185955 C128.29811319 411.08246301 125.94960182 408.73087415 123.60205817 406.37828004 C121.0587076 403.83057415 118.51242951 401.28579688 115.96652222 398.74064636 C111.56591384 394.34056002 107.16712682 389.93865979 102.76960373 385.53549004 C96.41167409 379.16940183 90.050955 372.80610664 83.68957157 366.44346989 C73.36644618 356.1181608 63.04555169 345.79062478 52.72607422 335.46166992 C42.70706996 325.43347386 32.68700643 315.40633816 22.66552734 305.38061523 C22.0468595 304.76168467 21.42819165 304.1427541 20.7907763 303.50506806 C17.68681307 300.3997997 14.58282912 297.29455207 11.47883487 294.18931472 C-14.234771 268.4653575 -39.94475044 242.73777837 -65.65234375 217.0078125 C-67.08795536 217.79641711 -68.52247804 218.58700424 -69.95654297 219.37841797 C-70.75550995 219.81846161 -71.55447693 220.25850525 -72.37765503 220.71188354 C-75.28620456 222.36893381 -78.01856034 224.23839987 -80.77734375 226.1328125 C-111.46401988 246.34574842 -150.22846165 258.41693839 -186.96484375 251.8203125 C-206.15508574 247.1206614 -222.0576635 237.53652155 -232.96484375 220.7578125 C-246.62271079 197.3049095 -246.9029253 168.06607411 -240.19921875 142.3046875 C-237.84739323 134.00377121 -235.00632426 125.9549461 -231.65234375 118.0078125 C-231.3495752 117.28932129 -231.04680664 116.57083008 -230.73486328 115.83056641 C-215.24227893 79.76868531 -187.58658546 45.72938949 -155.65234375 23.0078125 C-155.03472168 22.56179687 -154.41709961 22.11578125 -153.78076172 21.65625 C-111.53586693 -8.72019456 -47.12194058 -35.3935047 0 0 Z M-118.5859375 59.41015625 C-127.6347158 70.78527452 -132.57425401 81.33407415 -131.65234375 96.0078125 C-132.31878906 95.96140625 -132.98523438 95.915 -133.671875 95.8671875 C-150.04103636 95.2261574 -162.9094427 104.4480308 -174.65234375 115.0078125 C-185.08083017 124.93439316 -193.40423476 138.7638447 -194.21484375 153.3203125 C-193.95528751 162.57781854 -190.14667612 169.98525994 -183.58984375 176.4453125 C-170.29903479 187.25817403 -152.32578701 187.26648852 -136.09033203 185.77197266 C-115.56949999 183.21550537 -95.37422297 175.38638879 -76.65234375 166.8828125 C-75.80478516 166.5120459 -74.95722656 166.1412793 -74.08398438 165.75927734 C-68.2254794 162.9543913 -65.5016866 159.7903024 -62.65234375 154.0078125 C-62.32814453 153.38293945 -62.00394531 152.75806641 -61.66992188 152.11425781 C-48.53000663 125.87540419 -34.85705891 89.26492463 -43.68359375 59.6796875 C-47.28731985 49.74037841 -52.25031083 41.58505586 -61.90234375 36.5703125 C-83.15345866 26.77899303 -105.32179194 44.05791621 -118.5859375 59.41015625 Z " fill="#000000" transform="translate(243.65234375,40.9921875)"/>
</svg>
